<?xml version="1.0" encoding="utf-8"?>
<!-- Generator: Adobe Illustrator 22.0.0, SVG Export Plug-In . SVG Version: 6.00 Build 0)  -->
<svg version="1.1" id="Laag_1" xmlns="http://www.w3.org/2000/svg" xmlns:xlink="http://www.w3.org/1999/xlink" x="0px" y="0px"
	 viewBox="0 0 500.4 49.7" style="enable-background:new 0 0 500.4 49.7;" xml:space="preserve">
<style type="text/css">
	.st0{fill:#FFFFFF;}
</style>
<text transform="matrix(1 0 0 1 -442.473 -879.2963)" style="font-family:'Vincent-Regular'; font-size:12px;">BRAND NEW GUYS</text>
<text transform="matrix(1 0 0 1 -705.6843 -810.1952)" style="font-family:'GTAmerica-ExpandedBold'; font-size:68.6293px;">UN:PLUGGED</text>
<text transform="matrix(1 0 0 1 212.9408 -879.2963)" style="font-family:'Vincent-Regular'; font-size:12px;">BRAND NEW GUYS</text>
<g>
	<path class="st0" d="M53.1,4.5c-0.9,0.2-1.6,0.5-2.1,0.9s-1,1.1-1.3,2c-0.3,0.9-0.5,2.2-0.6,3.8c-0.1,1.6-0.2,3.6-0.2,6.1V32
		c0,2.7-0.4,5.1-1.3,7.2c-0.9,2.2-2.2,4-3.9,5.6c-1.7,1.6-3.9,2.8-6.6,3.6s-5.7,1.3-9.3,1.3c-7.2,0-12.5-1.7-16-5.1
		c-3.5-3.4-5.2-8.1-5.2-14V17.3c0-2.5-0.1-4.6-0.2-6.1C6.3,9.6,6.1,8.3,5.8,7.4c-0.3-0.9-0.7-1.6-1.3-2S3.3,4.7,2.4,4.5L0,4V0.5
		c0.4,0,1.2,0,2.4,0c1.2,0,2.5,0,3.9,0c1.4,0,2.8,0,4.2,0c1.3,0,2.3,0,3,0s1.7,0,3.1,0c1.4,0,2.8,0,4.3,0c1.5,0,2.8,0,4,0
		c1.2,0,2,0,2.4,0V4l-2.5,0.5c-1,0.2-1.8,0.5-2.4,0.8c-0.6,0.4-1.1,1-1.4,1.9c-0.3,0.9-0.5,2.1-0.7,3.7c-0.1,1.6-0.2,3.7-0.2,6.3
		v13.5c0,4.6,0.9,7.9,2.6,9.9c1.8,2,4.5,3.1,8.3,3.1c4,0,6.9-1.1,8.6-3.4c1.8-2.3,2.6-5.3,2.6-9V17.3c0-2.7-0.1-4.8-0.2-6.3
		c-0.1-1.6-0.3-2.8-0.7-3.7S40.6,5.7,40,5.4c-0.6-0.4-1.4-0.6-2.4-0.8L35.1,4V0.5c0.3,0,0.9,0,1.8,0c0.9,0,1.9,0,2.9,0s2.1,0,3.1,0
		c1,0,1.9,0,2.5,0c0.6,0,1.5,0,2.4,0c1,0,2,0,3,0s1.9,0,2.8,0c0.8,0,1.5,0,1.8,0V4L53.1,4.5z"/>
	<path class="st0" d="M111.4,4.5c-0.9,0.2-1.6,0.5-2.1,0.9s-1,1.1-1.3,2c-0.3,0.9-0.5,2.2-0.6,3.8c-0.1,1.6-0.2,3.6-0.2,6.1v31.2
		l-6.3,1L72.1,16v16.2c0,2.7,0.1,4.8,0.2,6.3c0.1,1.6,0.3,2.8,0.7,3.7c0.3,0.9,0.8,1.5,1.4,1.9s1.4,0.6,2.4,0.8l2.5,0.5V49
		c-0.4,0-1,0-1.9,0c-0.9,0-1.8,0-2.9,0c-1.1,0-2.1,0-3.1,0c-1,0-1.9,0-2.5,0c-0.6,0-1.5,0-2.4,0c-1,0-2,0-3,0c-1,0-1.9,0-2.8,0
		c-0.8,0-1.5,0-1.8,0v-3.6l2.4-0.5c0.9-0.2,1.6-0.5,2.1-0.9c0.5-0.4,1-1.1,1.3-2c0.3-0.9,0.5-2.2,0.6-3.8c0.1-1.6,0.2-3.6,0.2-6.1
		v-17c0-1.9-0.1-3.5-0.3-4.8c-0.2-1.3-0.5-2.3-1-3.1c-0.5-0.8-1.1-1.4-1.9-1.9c-0.8-0.4-1.7-0.8-2.8-1L57.5,4V0.5c0.4,0,0.9,0,1.6,0
		c0.7,0,1.5,0,2.3,0.1c0.8,0,1.6,0,2.5,0s1.6,0,2.2,0c0.5,0,1.2,0,2.1,0c0.8,0,1.7,0,2.6,0c0.9,0,1.8,0,2.6-0.1c0.8,0,1.5-0.1,2-0.1
		l25.2,29.2V17.3c0-2.7-0.1-4.8-0.2-6.3s-0.3-2.8-0.7-3.7c-0.3-0.9-0.8-1.5-1.4-1.9c-0.6-0.4-1.4-0.6-2.4-0.8L93.4,4V0.5
		c0.3,0,0.9,0,1.8,0c0.9,0,1.9,0,2.9,0c1.1,0,2.1,0,3.1,0c1,0,1.9,0,2.5,0c0.6,0,1.5,0,2.4,0c1,0,2,0,3,0c1,0,1.9,0,2.8,0
		c0.8,0,1.5,0,1.8,0V4L111.4,4.5z"/>
	<path class="st0" d="M132.9,20.5c0,2.1-0.7,3.9-2.1,5.2c-1.4,1.4-3.2,2.1-5.3,2.1s-3.9-0.7-5.3-2.1c-1.4-1.4-2.1-3.1-2.1-5.2
		c0-2.1,0.7-3.9,2.1-5.3c1.4-1.4,3.2-2.1,5.3-2.1s3.9,0.7,5.3,2.1C132.2,16.6,132.9,18.3,132.9,20.5z M132.9,42.2
		c0,2.1-0.7,3.9-2.1,5.2c-1.4,1.4-3.2,2.1-5.3,2.1s-3.9-0.7-5.3-2.1c-1.4-1.4-2.1-3.1-2.1-5.2s0.7-3.9,2.1-5.3
		c1.4-1.4,3.2-2.1,5.3-2.1s3.9,0.7,5.3,2.1C132.2,38.3,132.9,40.1,132.9,42.2z"/>
	<path class="st0" d="M182.1,14.3c0,2.4-0.4,4.5-1.3,6.3c-0.9,1.8-2.2,3.3-3.9,4.5c-1.7,1.2-3.8,2.2-6.3,3c-2.5,0.7-5.3,1.3-8.5,1.6
		l-0.5-2.8c1.2-0.6,2.3-1.3,3.2-2c0.9-0.7,1.6-1.5,2.2-2.4c0.5-0.9,1-2,1.2-3.2s0.4-2.7,0.4-4.5c0-3.5-0.6-6-1.9-7.5
		c-1.3-1.5-2.9-2.3-5-2.3c-0.8,0-1.4,0-1.9,0.1c-0.5,0.1-1.1,0.2-1.6,0.4v26.7c0,2.7,0.1,4.9,0.2,6.5c0.1,1.6,0.4,2.8,0.7,3.7
		c0.4,0.9,0.9,1.5,1.6,1.8c0.7,0.3,1.6,0.6,2.8,0.8l2.5,0.5V49c-0.4,0-1.2,0-2.5,0c-1.3,0-2.7,0-4.3,0c-1.6,0-3.1,0-4.5,0
		c-1.5,0-2.5,0-3.2,0c-0.6,0-1.6,0-3,0c-1.3,0-2.7,0-4.2,0s-2.7,0-3.9,0c-1.2,0-2,0-2.4,0v-3.6l2.4-0.5c0.9-0.2,1.6-0.5,2.1-0.9
		c0.5-0.4,1-1.1,1.3-2c0.3-0.9,0.5-2.2,0.6-3.8c0.1-1.6,0.2-3.6,0.2-6.1V17.3c0-2.5-0.1-4.6-0.2-6.1c-0.1-1.6-0.3-2.8-0.6-3.8
		c-0.3-0.9-0.7-1.6-1.3-2c-0.5-0.4-1.3-0.7-2.1-0.9L137.9,4V0.5c0.4,0,1.2,0,2.4,0c1.2,0,2.5,0,3.9,0s2.8,0,4.2,0c1.3,0,2.3,0,3,0
		c0.6,0,1.5,0,2.6,0s2.3,0,3.5,0c1.2,0,2.4,0,3.6,0c1.2,0,2.2,0,3,0c2.7,0,5.2,0.3,7.4,0.9c2.2,0.6,4.1,1.5,5.7,2.6
		c1.6,1.2,2.8,2.6,3.6,4.3S182.1,12.1,182.1,14.3z"/>
	<path class="st0" d="M225.2,48.9h-8c-1.1,0-2.4,0-4.1,0c-1.7,0-3.4,0-5.2,0c-1.8,0-3.4,0-4.9,0s-2.6,0-3.3,0s-1.7,0-3.2,0
		c-1.5,0-3.1,0-4.7,0c-1.6,0-3.1,0-4.5,0c-1.4,0-2.3,0-2.7,0v-3.6L187,45c0.9-0.2,1.6-0.5,2.1-0.9s1-1.1,1.3-2
		c0.3-0.9,0.5-2.2,0.6-3.8c0.1-1.6,0.2-3.6,0.2-6.1V17.3c0-2.5-0.1-4.6-0.2-6.1c-0.1-1.6-0.3-2.8-0.6-3.8c-0.3-0.9-0.7-1.6-1.3-2
		s-1.3-0.7-2.1-0.9L184.6,4V0.5c0.4,0,1.2,0,2.4,0c1.2,0,2.5,0,3.9,0c1.4,0,2.8,0,4.2,0c1.3,0,2.3,0,3,0c0.6,0,1.7,0,3.2,0
		c1.5,0,3,0,4.5,0c1.6,0,3,0,4.3,0c1.3,0,2.1,0,2.5,0V4l-2.5,0.5c-1.2,0.2-2.1,0.5-2.8,0.8c-0.7,0.3-1.2,0.9-1.6,1.8
		c-0.4,0.9-0.6,2.1-0.7,3.7c-0.1,1.6-0.2,3.7-0.2,6.5v18.2c0,1.8,0.1,3.3,0.3,4.5c0.2,1.1,0.5,2,1.1,2.6c0.5,0.6,1.3,1,2.3,1.3
		c1,0.2,2.2,0.3,3.8,0.3h0.2c2.1,0,3.9-0.5,5.2-1.4c1.3-1,2.5-2.7,3.6-5.1l1.1-2.6h4.7L225.2,48.9z"/>
	<path class="st0" d="M281.6,4.5c-0.9,0.2-1.6,0.5-2.1,0.9s-1,1.1-1.3,2c-0.3,0.9-0.5,2.2-0.6,3.8c-0.1,1.6-0.2,3.6-0.2,6.1V32
		c0,2.7-0.4,5.1-1.3,7.2c-0.9,2.2-2.2,4-3.9,5.6c-1.7,1.6-3.9,2.8-6.6,3.6c-2.6,0.8-5.7,1.3-9.3,1.3c-7.2,0-12.5-1.7-16-5.1
		c-3.5-3.4-5.2-8.1-5.2-14V17.3c0-2.5-0.1-4.6-0.2-6.1c-0.1-1.6-0.3-2.8-0.6-3.8c-0.3-0.9-0.7-1.6-1.3-2c-0.5-0.4-1.3-0.7-2.1-0.9
		L228.5,4V0.5c0.4,0,1.2,0,2.4,0c1.2,0,2.5,0,3.9,0c1.4,0,2.8,0,4.2,0c1.3,0,2.3,0,3,0s1.7,0,3.1,0c1.4,0,2.8,0,4.3,0
		c1.5,0,2.8,0,4,0c1.2,0,2,0,2.4,0V4l-2.5,0.5c-1,0.2-1.8,0.5-2.4,0.8c-0.6,0.4-1.1,1-1.4,1.9s-0.5,2.1-0.7,3.7
		c-0.1,1.6-0.2,3.7-0.2,6.3v13.5c0,4.6,0.9,7.9,2.6,9.9c1.8,2,4.5,3.1,8.3,3.1c4,0,6.9-1.1,8.6-3.4c1.8-2.3,2.6-5.3,2.6-9V17.3
		c0-2.7-0.1-4.8-0.2-6.3s-0.3-2.8-0.7-3.7c-0.3-0.9-0.8-1.5-1.4-1.9c-0.6-0.4-1.4-0.6-2.4-0.8L263.6,4V0.5c0.3,0,0.9,0,1.8,0
		c0.9,0,1.9,0,2.9,0s2.1,0,3.1,0c1,0,1.9,0,2.5,0c0.6,0,1.5,0,2.4,0c1,0,2,0,3,0c1,0,1.9,0,2.8,0c0.8,0,1.5,0,1.8,0V4L281.6,4.5z"/>
	<path class="st0" d="M337.2,31.2c-1.7,0.3-2.9,0.9-3.5,1.8c-0.6,0.9-1,2.2-1,4v0.5c0,0.9,0.1,1.7,0.2,2.3c0.1,0.6,0.3,1.2,0.7,1.6
		c0.3,0.4,0.8,0.8,1.3,1s1.3,0.5,2.1,0.8v3.1c-2.7,1-6,1.8-9.8,2.4c-3.8,0.6-7.8,0.8-11.9,0.8c-4.1,0-7.8-0.5-11.2-1.6
		c-3.4-1.1-6.2-2.6-8.6-4.7c-2.4-2.1-4.3-4.7-5.6-7.8s-2-6.6-2-10.7c0-3.9,0.7-7.4,2.2-10.5c1.5-3.1,3.5-5.7,6.1-7.8s5.6-3.7,9-4.8
		c3.5-1.1,7.1-1.6,11.1-1.6c3.7,0,7,0.3,9.9,1s5.2,1.6,6.9,2.6l1,12.3h-5.1L328,14c-0.5-1.2-1.2-2.4-2-3.6c-0.8-1.1-1.6-2.1-2.6-3
		c-1-0.8-2.2-1.5-3.4-2c-1.3-0.5-2.7-0.8-4.3-0.8c-4,0-7.1,1.6-9.4,4.7c-2.3,3.1-3.5,7.9-3.5,14.3c0,3.6,0.3,6.7,1,9.4
		c0.6,2.7,1.6,4.9,2.7,6.6s2.6,3.1,4.3,3.9s3.5,1.3,5.6,1.3c2.3,0,3.9-0.2,4.8-0.6c0.9-0.4,1.3-1.1,1.3-2v-3c0-1.4-0.1-2.6-0.2-3.6
		s-0.3-1.8-0.7-2.4c-0.3-0.6-0.8-1.1-1.4-1.4c-0.6-0.3-1.4-0.5-2.3-0.7l-2.1-0.3v-3.6c0.3,0,1,0,2,0c1,0,2.1,0,3.3,0
		c1.2,0,2.4,0,3.5,0c1.2,0,2.1,0,2.7,0s1.5,0,2.7,0c1.1,0,2.3,0,3.5,0c1.2,0,2.3,0,3.3,0c1,0,1.7,0,2.1,0v3.6L337.2,31.2z"/>
	<path class="st0" d="M392.8,31.2c-1.7,0.3-2.9,0.9-3.5,1.8c-0.6,0.9-1,2.2-1,4v0.5c0,0.9,0.1,1.7,0.2,2.3c0.1,0.6,0.3,1.2,0.7,1.6
		c0.3,0.4,0.8,0.8,1.3,1s1.3,0.5,2.1,0.8v3.1c-2.7,1-6,1.8-9.8,2.4c-3.8,0.6-7.8,0.8-11.9,0.8c-4.1,0-7.8-0.5-11.2-1.6
		s-6.2-2.6-8.6-4.7s-4.3-4.7-5.6-7.8c-1.4-3.1-2-6.6-2-10.7c0-3.9,0.7-7.4,2.2-10.5c1.5-3.1,3.5-5.7,6.1-7.8c2.6-2.1,5.6-3.7,9-4.8
		c3.5-1.1,7.1-1.6,11.1-1.6c3.7,0,7,0.3,9.9,1c2.9,0.7,5.2,1.6,6.9,2.6l1,12.3h-5.1l-0.8-1.9c-0.5-1.2-1.2-2.4-2-3.6
		c-0.8-1.1-1.6-2.1-2.6-3c-1-0.8-2.2-1.5-3.4-2c-1.3-0.5-2.7-0.8-4.3-0.8c-4,0-7.1,1.6-9.4,4.7c-2.3,3.1-3.5,7.9-3.5,14.3
		c0,3.6,0.3,6.7,1,9.4c0.6,2.7,1.6,4.9,2.7,6.6c1.2,1.8,2.6,3.1,4.3,3.9c1.7,0.8,3.5,1.3,5.6,1.3c2.3,0,3.9-0.2,4.8-0.6
		c0.9-0.4,1.3-1.1,1.3-2v-3c0-1.4-0.1-2.6-0.2-3.6s-0.3-1.8-0.7-2.4c-0.3-0.6-0.8-1.1-1.4-1.4c-0.6-0.3-1.4-0.5-2.3-0.7l-2.1-0.3
		v-3.6c0.3,0,1,0,2,0c1,0,2.1,0,3.3,0s2.4,0,3.5,0c1.2,0,2.1,0,2.7,0c0.6,0,1.5,0,2.7,0c1.1,0,2.3,0,3.5,0c1.2,0,2.3,0,3.3,0
		c1,0,1.7,0,2.1,0v3.6L392.8,31.2z"/>
	<path class="st0" d="M440.5,48.9H433c-0.7,0-1.6,0-2.8,0s-2.4,0-3.8,0s-2.8,0-4.2,0c-1.5,0-2.8,0-4.1,0c-1.3,0-2.4,0-3.4,0
		c-1,0-1.7,0-2.1,0c-0.6,0-1.7,0-3.2,0c-1.5,0-3,0-4.5,0c-1.5,0-3,0-4.3,0c-1.3,0-2.2,0-2.5,0v-3.6l2.4-0.5c0.9-0.2,1.6-0.5,2.1-0.9
		c0.5-0.4,1-1.1,1.3-2c0.3-0.9,0.5-2.2,0.6-3.8c0.1-1.6,0.2-3.6,0.2-6.1V17.3c0-2.5-0.1-4.6-0.2-6.1c-0.1-1.6-0.3-2.8-0.6-3.8
		c-0.3-0.9-0.7-1.6-1.3-2c-0.5-0.4-1.3-0.7-2.1-0.9L398,4V0.5c0.4,0,1.2,0,2.5,0c1.3,0,2.8,0,4.3,0c1.5,0,3,0,4.5,0
		c1.5,0,2.5,0,3.2,0c0.4,0,1.2,0,2.3,0s2.4,0,3.9,0c1.5,0,3,0,4.6,0c1.6,0,3.1,0,4.5,0s2.6,0,3.6,0c1,0,1.6,0,1.9,0h5.8l1.6,12.5
		h-4.3l-1-1.9c-1-1.8-2.2-3.3-3.6-4.3c-1.4-1.1-3.4-1.6-5.8-1.6h-2.2c-1.4,0-2.5,0.1-3.4,0.3c-0.8,0.2-1.6,0.4-2.2,0.6v15.2h1.7
		c2,0,3.6-0.1,4.8-0.3c1.2-0.2,2.2-0.5,2.9-1c0.7-0.5,1.2-1,1.4-1.8c0.3-0.7,0.5-1.5,0.5-2.5l0.1-0.8h3.4c0,0.4,0,0.9,0,1.6
		c0,0.7,0,1.5,0,2.4c0,0.9,0,1.7,0,2.6c0,0.9,0,1.6,0,2.3s0,1.4,0,2.3c0,0.9,0,1.8,0,2.6s0,1.6,0,2.4c0,0.8,0,1.3,0,1.7h-3.4
		l-0.1-0.8c-0.1-1-0.3-1.8-0.5-2.5c-0.3-0.7-0.8-1.3-1.4-1.8c-0.7-0.5-1.6-0.8-2.9-1c-1.2-0.2-2.8-0.3-4.8-0.3h-1.7v9.1
		c0,1.8,0.1,3.3,0.3,4.5c0.2,1.1,0.5,2,1.1,2.6c0.5,0.6,1.3,1,2.3,1.3c1,0.2,2.2,0.3,3.8,0.3h1.7c2.4,0,4.2-0.5,5.5-1.4
		c1.3-1,2.5-2.5,3.5-4.5l1-1.9h4.7L440.5,48.9z"/>
	<path class="st0" d="M500.4,24.6c0,4-0.7,7.5-2.1,10.5s-3.3,5.6-5.7,7.7c-2.4,2.1-5.2,3.6-8.5,4.7c-3.3,1.1-6.8,1.6-10.6,1.6
		c-1.7,0-3.5,0-5.2,0c-1.7,0-3.4,0-4.9-0.1c-1.6,0-3,0-4.3-0.1c-1.3,0-2.4,0-3.2,0c-0.6,0-1.5,0-2.5,0c-1.1,0-2.1,0-3.2,0
		c-1.1,0-2.1,0-3,0c-0.9,0-1.5,0-1.9,0v-3.6l2.4-0.5c0.9-0.2,1.6-0.5,2.1-0.9s1-1.1,1.3-2c0.3-0.9,0.5-2.2,0.6-3.8
		c0.1-1.6,0.2-3.6,0.2-6.1V17.3c0-2.5-0.1-4.6-0.2-6.1c-0.1-1.6-0.3-2.8-0.6-3.8s-0.7-1.6-1.3-2s-1.3-0.7-2.1-0.9L445.4,4V0.5
		c0.4,0,1,0,1.9,0c0.9,0,1.8,0,2.8,0s2,0,3.1,0c1,0,1.8,0,2.5,0c0.7,0,1.7,0,3,0c1.3,0,2.7,0,4.2,0s2.9,0,4.3,0c1.4,0,2.5,0,3.3,0
		c4.3,0,8.4,0.5,12,1.6c3.7,1.1,6.9,2.6,9.5,4.6c2.7,2,4.8,4.6,6.2,7.6C499.7,17.3,500.4,20.8,500.4,24.6z M485.5,25.4
		c0-6.9-1.6-12-4.7-15.4c-3.1-3.4-7.4-5-12.7-5c-0.3,0-0.7,0-1.3,0c-0.6,0-1,0.1-1.3,0.1v30.4c0,1.6,0.1,3.1,0.3,4.2
		s0.6,2.1,1.2,2.8c0.6,0.7,1.3,1.3,2.3,1.6c0.9,0.3,2.1,0.5,3.5,0.5c3.8,0,6.9-1.5,9.2-4.6C484.3,37,485.5,32.1,485.5,25.4z"/>
</g>
</svg>
