<?xml version="1.0" encoding="utf-8"?>
<!-- Generator: Adobe Illustrator 22.0.0, SVG Export Plug-In . SVG Version: 6.00 Build 0)  -->
<svg version="1.1" id="Laag_1" xmlns="http://www.w3.org/2000/svg" xmlns:xlink="http://www.w3.org/1999/xlink" x="0px" y="0px"
	 viewBox="0 0 597 52.2" style="enable-background:new 0 0 597 52.2;" xml:space="preserve">
<style type="text/css">
	.st0{fill:#FFFFFF;}
</style>
<text transform="matrix(1 0 0 1 258.8873 -878.5376)" style="font-family:'Vincent-Regular'; font-size:12px;">BRAND NEW GUYS</text>
<text transform="matrix(1 0 0 1 -4.324 -809.4366)" style="font-family:'GTAmerica-ExpandedBold'; font-size:68.6293px;">UN:PLUGGED</text>
<g>
	<path class="st0" d="M13.9,1.7v25.5c0,8.2,5.1,14.1,14.8,14.1c9.3,0,14.7-5.8,14.7-14.1V1.7h13.9v26.9c0,14.1-10.2,23.5-28.6,23.5
		C10.2,52.2,0,42.6,0,28.5V1.7H13.9z"/>
	<path class="st0" d="M67.9,1.7h14.8l25.3,27.7c1.6,1.9,3,3.6,3.8,5.5h0.3v-7V1.7h12.6v48.7H111L84.7,22.5c-1.3-1.5-3.2-4-3.9-5.6
		h-0.3v6.8v26.7H67.9V1.7z"/>
	<path class="st0" d="M150,27.4h-14.3V16.1H150V27.4z M150,50.4h-14.3V39.2H150V50.4z"/>
	<path class="st0" d="M214.2,17.9c0,10.4-8.1,17.1-20.7,17.1h-18.9v15.4h-13.9V1.7h33.1C206.6,1.7,214.2,7.8,214.2,17.9z
		 M199.6,18.3c0-4.7-3.3-7.2-9.1-7.2h-15.9v14.6h15.8C196.1,25.7,199.6,23,199.6,18.3z"/>
	<path class="st0" d="M221.6,1.7h13.9v37.9h33v10.8h-46.9V1.7z"/>
	<path class="st0" d="M286.5,1.7v25.5c0,8.2,5.1,14.1,14.8,14.1c9.3,0,14.7-5.8,14.7-14.1V1.7h13.9v26.9c0,14.1-10.2,23.5-28.6,23.5
		c-18.5,0-28.7-9.5-28.7-23.7V1.7H286.5z"/>
	<path class="st0" d="M336.5,26.6c0-15.3,12.4-26.6,32.4-26.6c15.4,0,26.8,6.1,29.8,16l-15,2.5c-1.8-4.8-6.9-8.4-15.2-8.4
		c-11.1,0-17.4,6.4-17.4,16.4c0,9.5,6.5,15.9,17.6,15.9c10.6,0,16.7-4.9,17.1-10.4v-0.2h-18.4v-8.6h31.3v27.2H388l-0.6-8.4
		c-3,5.1-9.9,10.1-22.2,10.1C347.2,52.2,336.5,41.4,336.5,26.6z"/>
	<path class="st0" d="M403.9,26.6c0-15.3,12.4-26.6,32.4-26.6c15.4,0,26.8,6.1,29.8,16l-15,2.5c-1.8-4.8-6.9-8.4-15.2-8.4
		c-11.1,0-17.4,6.4-17.4,16.4c0,9.5,6.5,15.9,17.6,15.9c10.6,0,16.7-4.9,17.1-10.4v-0.2h-18.4v-8.6h31.3v27.2h-10.6l-0.6-8.4
		c-3,5.1-9.9,10.1-22.2,10.1C414.7,52.2,403.9,41.4,403.9,26.6z"/>
	<path class="st0" d="M526,40.7v9.7h-49.7V1.7h49.2v9.7h-35.3v9.7h34.2v9.1h-34.2v10.4H526z"/>
	<path class="st0" d="M536.7,1.7h31c17.9,0,29.4,8.3,29.4,23.5c0,15.2-12.1,25.2-29.6,25.2h-30.7V1.7z M565.6,41
		c10.4,0,16.7-5.8,16.7-15.5c0-9.5-6.9-14.4-16.8-14.4h-15V41H565.6z"/>
</g>
<text transform="matrix(1 0 0 1 914.3011 -878.5376)" style="font-family:'Vincent-Regular'; font-size:12px;">BRAND NEW GUYS</text>
<g>
	<path class="st0" d="M754.4,5.3c-0.9,0.2-1.6,0.5-2.1,0.9s-1,1.1-1.3,2c-0.3,0.9-0.5,2.2-0.6,3.8c-0.1,1.6-0.2,3.6-0.2,6.1v14.7
		c0,2.7-0.4,5.1-1.3,7.2c-0.9,2.2-2.2,4-3.9,5.6c-1.7,1.6-3.9,2.8-6.6,3.6s-5.7,1.3-9.3,1.3c-7.2,0-12.5-1.7-16-5.1
		c-3.5-3.4-5.2-8.1-5.2-14V18.1c0-2.5-0.1-4.6-0.2-6.1c-0.1-1.6-0.3-2.8-0.6-3.8c-0.3-0.9-0.7-1.6-1.3-2s-1.3-0.7-2.1-0.9l-2.4-0.5
		V1.2c0.4,0,1.2,0,2.4,0c1.2,0,2.5,0,3.9,0c1.4,0,2.8,0,4.2,0c1.3,0,2.3,0,3,0s1.7,0,3.1,0c1.4,0,2.8,0,4.3,0c1.5,0,2.8,0,4,0
		c1.2,0,2,0,2.4,0v3.6L726,5.3c-1,0.2-1.8,0.5-2.4,0.8c-0.6,0.4-1.1,1-1.4,1.9c-0.3,0.9-0.5,2.1-0.7,3.7c-0.1,1.6-0.2,3.7-0.2,6.3
		v13.5c0,4.6,0.9,7.9,2.6,9.9c1.8,2,4.5,3.1,8.3,3.1c4,0,6.9-1.1,8.6-3.4c1.8-2.3,2.6-5.3,2.6-9V18.1c0-2.7-0.1-4.8-0.2-6.3
		c-0.1-1.6-0.3-2.8-0.7-3.7s-0.8-1.5-1.4-1.9c-0.6-0.4-1.4-0.6-2.4-0.8l-2.5-0.5V1.2c0.3,0,0.9,0,1.8,0c0.9,0,1.9,0,2.9,0
		s2.1,0,3.1,0c1,0,1.9,0,2.5,0c0.6,0,1.5,0,2.4,0c1,0,2,0,3,0s1.9,0,2.8,0c0.8,0,1.5,0,1.8,0v3.6L754.4,5.3z"/>
	<path class="st0" d="M812.7,5.3c-0.9,0.2-1.6,0.5-2.1,0.9s-1,1.1-1.3,2c-0.3,0.9-0.5,2.2-0.6,3.8c-0.1,1.6-0.2,3.6-0.2,6.1v31.2
		l-6.3,1l-28.8-33.5v16.2c0,2.7,0.1,4.8,0.2,6.3c0.1,1.6,0.3,2.8,0.7,3.7c0.3,0.9,0.8,1.5,1.4,1.9s1.4,0.6,2.4,0.8l2.5,0.5v3.6
		c-0.4,0-1,0-1.9,0c-0.9,0-1.8,0-2.9,0c-1.1,0-2.1,0-3.1,0c-1,0-1.9,0-2.5,0c-0.6,0-1.5,0-2.4,0c-1,0-2,0-3,0c-1,0-1.9,0-2.8,0
		c-0.8,0-1.5,0-1.8,0v-3.6l2.4-0.5c0.9-0.2,1.6-0.5,2.1-0.9c0.5-0.4,1-1.1,1.3-2c0.3-0.9,0.5-2.2,0.6-3.8c0.1-1.6,0.2-3.6,0.2-6.1
		V16c0-1.9-0.1-3.5-0.3-4.8c-0.2-1.3-0.5-2.3-1-3.1c-0.5-0.8-1.1-1.4-1.9-1.9c-0.8-0.4-1.7-0.8-2.8-1l-1.9-0.4V1.2
		c0.4,0,0.9,0,1.6,0c0.7,0,1.5,0,2.3,0.1c0.8,0,1.6,0,2.5,0s1.6,0,2.2,0c0.5,0,1.2,0,2.1,0c0.8,0,1.7,0,2.6,0c0.9,0,1.8,0,2.6-0.1
		c0.8,0,1.5-0.1,2-0.1l25.2,29.2V18.1c0-2.7-0.1-4.8-0.2-6.3s-0.3-2.8-0.7-3.7c-0.3-0.9-0.8-1.5-1.4-1.9c-0.6-0.4-1.4-0.6-2.4-0.8
		l-2.5-0.5V1.2c0.3,0,0.9,0,1.8,0c0.9,0,1.9,0,2.9,0c1.1,0,2.1,0,3.1,0c1,0,1.9,0,2.5,0c0.6,0,1.5,0,2.4,0c1,0,2,0,3,0
		c1,0,1.9,0,2.8,0c0.8,0,1.5,0,1.8,0v3.6L812.7,5.3z"/>
	<path class="st0" d="M834.3,21.2c0,2.1-0.7,3.9-2.1,5.2c-1.4,1.4-3.2,2.1-5.3,2.1s-3.9-0.7-5.3-2.1c-1.4-1.4-2.1-3.1-2.1-5.2
		c0-2.1,0.7-3.9,2.1-5.3c1.4-1.4,3.2-2.1,5.3-2.1s3.9,0.7,5.3,2.1C833.6,17.3,834.3,19.1,834.3,21.2z M834.3,43
		c0,2.1-0.7,3.9-2.1,5.2c-1.4,1.4-3.2,2.1-5.3,2.1s-3.9-0.7-5.3-2.1c-1.4-1.4-2.1-3.1-2.1-5.2s0.7-3.9,2.1-5.3
		c1.4-1.4,3.2-2.1,5.3-2.1s3.9,0.7,5.3,2.1C833.6,39.1,834.3,40.9,834.3,43z"/>
	<path class="st0" d="M883.5,15.1c0,2.4-0.4,4.5-1.3,6.3c-0.9,1.8-2.2,3.3-3.9,4.5c-1.7,1.2-3.8,2.2-6.3,3c-2.5,0.7-5.3,1.3-8.5,1.6
		l-0.5-2.8c1.2-0.6,2.3-1.3,3.2-2c0.9-0.7,1.6-1.5,2.2-2.4c0.5-0.9,1-2,1.2-3.2s0.4-2.7,0.4-4.5c0-3.5-0.6-6-1.9-7.5
		c-1.3-1.5-2.9-2.3-5-2.3c-0.8,0-1.4,0-1.9,0.1c-0.5,0.1-1.1,0.2-1.6,0.4v26.7c0,2.7,0.1,4.9,0.2,6.5c0.1,1.6,0.4,2.8,0.7,3.7
		c0.4,0.9,0.9,1.5,1.6,1.8c0.7,0.3,1.6,0.6,2.8,0.8l2.5,0.5v3.6c-0.4,0-1.2,0-2.5,0c-1.3,0-2.7,0-4.3,0c-1.6,0-3.1,0-4.5,0
		c-1.5,0-2.5,0-3.2,0c-0.6,0-1.6,0-3,0c-1.3,0-2.7,0-4.2,0s-2.7,0-3.9,0c-1.2,0-2,0-2.4,0v-3.6l2.4-0.5c0.9-0.2,1.6-0.5,2.1-0.9
		c0.5-0.4,1-1.1,1.3-2c0.3-0.9,0.5-2.2,0.6-3.8c0.1-1.6,0.2-3.6,0.2-6.1V18.1c0-2.5-0.1-4.6-0.2-6.1c-0.1-1.6-0.3-2.8-0.6-3.8
		c-0.3-0.9-0.7-1.6-1.3-2c-0.5-0.4-1.3-0.7-2.1-0.9l-2.4-0.5V1.2c0.4,0,1.2,0,2.4,0c1.2,0,2.5,0,3.9,0s2.8,0,4.2,0c1.3,0,2.3,0,3,0
		c0.6,0,1.5,0,2.6,0s2.3,0,3.5,0c1.2,0,2.4,0,3.6,0c1.2,0,2.2,0,3,0c2.7,0,5.2,0.3,7.4,0.9c2.2,0.6,4.1,1.5,5.7,2.6
		c1.6,1.2,2.8,2.6,3.6,4.3S883.5,12.9,883.5,15.1z"/>
	<path class="st0" d="M926.6,49.7h-8c-1.1,0-2.4,0-4.1,0c-1.7,0-3.4,0-5.2,0c-1.8,0-3.4,0-4.9,0s-2.6,0-3.3,0s-1.7,0-3.2,0
		c-1.5,0-3.1,0-4.7,0c-1.6,0-3.1,0-4.5,0c-1.4,0-2.3,0-2.7,0v-3.6l2.4-0.5c0.9-0.2,1.6-0.5,2.1-0.9s1-1.1,1.3-2
		c0.3-0.9,0.5-2.2,0.6-3.8c0.1-1.6,0.2-3.6,0.2-6.1V18.1c0-2.5-0.1-4.6-0.2-6.1c-0.1-1.6-0.3-2.8-0.6-3.8c-0.3-0.9-0.7-1.6-1.3-2
		s-1.3-0.7-2.1-0.9L886,4.8V1.2c0.4,0,1.2,0,2.4,0c1.2,0,2.5,0,3.9,0c1.4,0,2.8,0,4.2,0c1.3,0,2.3,0,3,0c0.6,0,1.7,0,3.2,0
		c1.5,0,3,0,4.5,0c1.6,0,3,0,4.3,0c1.3,0,2.1,0,2.5,0v3.6l-2.5,0.5c-1.2,0.2-2.1,0.5-2.8,0.8c-0.7,0.3-1.2,0.9-1.6,1.8
		c-0.4,0.9-0.6,2.1-0.7,3.7c-0.1,1.6-0.2,3.7-0.2,6.5v18.2c0,1.8,0.1,3.3,0.3,4.5c0.2,1.1,0.5,2,1.1,2.6c0.5,0.6,1.3,1,2.3,1.3
		c1,0.2,2.2,0.3,3.8,0.3h0.2c2.1,0,3.9-0.5,5.2-1.4c1.3-1,2.5-2.7,3.6-5.1l1.1-2.6h4.7L926.6,49.7z"/>
	<path class="st0" d="M982.9,5.3c-0.9,0.2-1.6,0.5-2.1,0.9s-1,1.1-1.3,2c-0.3,0.9-0.5,2.2-0.6,3.8c-0.1,1.6-0.2,3.6-0.2,6.1v14.7
		c0,2.7-0.4,5.1-1.3,7.2c-0.9,2.2-2.2,4-3.9,5.6c-1.7,1.6-3.9,2.8-6.6,3.6c-2.6,0.8-5.7,1.3-9.3,1.3c-7.2,0-12.5-1.7-16-5.1
		c-3.5-3.4-5.2-8.1-5.2-14V18.1c0-2.5-0.1-4.6-0.2-6.1c-0.1-1.6-0.3-2.8-0.6-3.8c-0.3-0.9-0.7-1.6-1.3-2c-0.5-0.4-1.3-0.7-2.1-0.9
		l-2.4-0.5V1.2c0.4,0,1.2,0,2.4,0c1.2,0,2.5,0,3.9,0c1.4,0,2.8,0,4.2,0c1.3,0,2.3,0,3,0s1.7,0,3.1,0c1.4,0,2.8,0,4.3,0
		c1.5,0,2.8,0,4,0c1.2,0,2,0,2.4,0v3.6l-2.5,0.5c-1,0.2-1.8,0.5-2.4,0.8c-0.6,0.4-1.1,1-1.4,1.9s-0.5,2.1-0.7,3.7
		c-0.1,1.6-0.2,3.7-0.2,6.3v13.5c0,4.6,0.9,7.9,2.6,9.9c1.8,2,4.5,3.1,8.3,3.1c4,0,6.9-1.1,8.6-3.4c1.8-2.3,2.6-5.3,2.6-9V18.1
		c0-2.7-0.1-4.8-0.2-6.3s-0.3-2.8-0.7-3.7c-0.3-0.9-0.8-1.5-1.4-1.9c-0.6-0.4-1.4-0.6-2.4-0.8L965,4.8V1.2c0.3,0,0.9,0,1.8,0
		c0.9,0,1.9,0,2.9,0s2.1,0,3.1,0c1,0,1.9,0,2.5,0c0.6,0,1.5,0,2.4,0c1,0,2,0,3,0c1,0,1.9,0,2.8,0c0.8,0,1.5,0,1.8,0v3.6L982.9,5.3z"
		/>
	<path class="st0" d="M1038.5,31.9c-1.7,0.3-2.9,0.9-3.5,1.7c-0.6,0.9-1,2.2-1,4v0.5c0,0.9,0.1,1.7,0.2,2.3c0.1,0.6,0.3,1.2,0.7,1.6
		c0.3,0.4,0.8,0.8,1.3,1s1.3,0.5,2.1,0.8V47c-2.7,1-6,1.8-9.8,2.4c-3.8,0.6-7.8,0.8-11.9,0.8c-4.1,0-7.8-0.5-11.2-1.6
		c-3.4-1.1-6.2-2.6-8.6-4.7c-2.4-2.1-4.3-4.7-5.6-7.8s-2-6.6-2-10.7c0-3.9,0.7-7.4,2.2-10.5c1.5-3.1,3.5-5.7,6.1-7.8s5.6-3.7,9-4.8
		c3.5-1.1,7.1-1.6,11.1-1.6c3.7,0,7,0.3,9.9,1s5.2,1.6,6.9,2.6l1,12.3h-5.1l-0.8-1.9c-0.5-1.2-1.2-2.4-2-3.6c-0.8-1.1-1.6-2.1-2.6-3
		c-1-0.8-2.2-1.5-3.4-2c-1.3-0.5-2.7-0.8-4.3-0.8c-4,0-7.1,1.6-9.4,4.7c-2.3,3.1-3.5,7.9-3.5,14.3c0,3.6,0.3,6.7,1,9.4
		c0.6,2.7,1.6,4.9,2.7,6.6s2.6,3.1,4.3,3.9s3.5,1.3,5.6,1.3c2.3,0,3.9-0.2,4.8-0.6c0.9-0.4,1.3-1.1,1.3-2v-3c0-1.4-0.1-2.6-0.2-3.6
		s-0.3-1.8-0.7-2.4c-0.3-0.6-0.8-1.1-1.4-1.4c-0.6-0.3-1.4-0.5-2.3-0.7l-2.1-0.3v-3.6c0.3,0,1,0,2,0c1,0,2.1,0,3.3,0
		c1.2,0,2.4,0,3.5,0c1.2,0,2.1,0,2.7,0s1.5,0,2.7,0c1.1,0,2.3,0,3.5,0c1.2,0,2.3,0,3.3,0c1,0,1.7,0,2.1,0v3.6L1038.5,31.9z"/>
	<path class="st0" d="M1094.1,31.9c-1.7,0.3-2.9,0.9-3.5,1.7c-0.6,0.9-1,2.2-1,4v0.5c0,0.9,0.1,1.7,0.2,2.3c0.1,0.6,0.3,1.2,0.7,1.6
		c0.3,0.4,0.8,0.8,1.3,1s1.3,0.5,2.1,0.8V47c-2.7,1-6,1.8-9.8,2.4c-3.8,0.6-7.8,0.8-11.9,0.8c-4.1,0-7.8-0.5-11.2-1.6
		s-6.2-2.6-8.6-4.7s-4.3-4.7-5.6-7.8c-1.4-3.1-2-6.6-2-10.7c0-3.9,0.7-7.4,2.2-10.5c1.5-3.1,3.5-5.7,6.1-7.8c2.6-2.1,5.6-3.7,9-4.8
		c3.5-1.1,7.1-1.6,11.1-1.6c3.7,0,7,0.3,9.9,1c2.9,0.7,5.2,1.6,6.9,2.6l1,12.3h-5.1l-0.8-1.9c-0.5-1.2-1.2-2.4-2-3.6
		c-0.8-1.1-1.6-2.1-2.6-3c-1-0.8-2.2-1.5-3.4-2c-1.3-0.5-2.7-0.8-4.3-0.8c-4,0-7.1,1.6-9.4,4.7c-2.3,3.1-3.5,7.9-3.5,14.3
		c0,3.6,0.3,6.7,1,9.4c0.6,2.7,1.6,4.9,2.7,6.6c1.2,1.8,2.6,3.1,4.3,3.9c1.7,0.8,3.5,1.3,5.6,1.3c2.3,0,3.9-0.2,4.8-0.6
		c0.9-0.4,1.3-1.1,1.3-2v-3c0-1.4-0.1-2.6-0.2-3.6s-0.3-1.8-0.7-2.4c-0.3-0.6-0.8-1.1-1.4-1.4c-0.6-0.3-1.4-0.5-2.3-0.7l-2.1-0.3
		v-3.6c0.3,0,1,0,2,0c1,0,2.1,0,3.3,0s2.4,0,3.5,0c1.2,0,2.1,0,2.7,0c0.6,0,1.5,0,2.7,0c1.1,0,2.3,0,3.5,0c1.2,0,2.3,0,3.3,0
		c1,0,1.7,0,2.1,0v3.6L1094.1,31.9z"/>
	<path class="st0" d="M1141.8,49.7h-7.5c-0.7,0-1.6,0-2.8,0s-2.4,0-3.8,0s-2.8,0-4.2,0c-1.5,0-2.8,0-4.1,0c-1.3,0-2.4,0-3.4,0
		c-1,0-1.7,0-2.1,0c-0.6,0-1.7,0-3.2,0c-1.5,0-3,0-4.5,0c-1.5,0-3,0-4.3,0c-1.3,0-2.2,0-2.5,0v-3.6l2.4-0.5c0.9-0.2,1.6-0.5,2.1-0.9
		c0.5-0.4,1-1.1,1.3-2c0.3-0.9,0.5-2.2,0.6-3.8c0.1-1.6,0.2-3.6,0.2-6.1V18.1c0-2.5-0.1-4.6-0.2-6.1c-0.1-1.6-0.3-2.8-0.6-3.8
		c-0.3-0.9-0.7-1.6-1.3-2c-0.5-0.4-1.3-0.7-2.1-0.9l-2.4-0.5V1.2c0.4,0,1.2,0,2.5,0c1.3,0,2.8,0,4.3,0c1.5,0,3,0,4.5,0
		c1.5,0,2.5,0,3.2,0c0.4,0,1.2,0,2.3,0s2.4,0,3.9,0c1.5,0,3,0,4.6,0c1.6,0,3.1,0,4.5,0s2.6,0,3.6,0c1,0,1.6,0,1.9,0h5.8l1.6,12.5
		h-4.3l-1-1.9c-1-1.8-2.2-3.3-3.6-4.3c-1.4-1.1-3.4-1.6-5.8-1.6h-2.2c-1.4,0-2.5,0.1-3.4,0.3c-0.8,0.2-1.6,0.4-2.2,0.6V22h1.7
		c2,0,3.6-0.1,4.8-0.3c1.2-0.2,2.2-0.5,2.9-1c0.7-0.5,1.2-1,1.4-1.8c0.3-0.7,0.5-1.5,0.5-2.5l0.1-0.8h3.4c0,0.4,0,0.9,0,1.6
		c0,0.7,0,1.5,0,2.4c0,0.9,0,1.7,0,2.6c0,0.9,0,1.6,0,2.3s0,1.4,0,2.3c0,0.9,0,1.8,0,2.6s0,1.6,0,2.4c0,0.8,0,1.3,0,1.7h-3.4
		l-0.1-0.8c-0.1-1-0.3-1.8-0.5-2.5c-0.3-0.7-0.8-1.3-1.4-1.8c-0.7-0.5-1.6-0.8-2.9-1c-1.2-0.2-2.8-0.3-4.8-0.3h-1.7v9.1
		c0,1.8,0.1,3.3,0.3,4.5c0.2,1.1,0.5,2,1.1,2.6c0.5,0.6,1.3,1,2.3,1.3c1,0.2,2.2,0.3,3.8,0.3h1.7c2.4,0,4.2-0.5,5.5-1.4
		c1.3-1,2.5-2.5,3.5-4.5l1-1.9h4.7L1141.8,49.7z"/>
	<path class="st0" d="M1201.8,25.4c0,4-0.7,7.5-2.1,10.5s-3.3,5.6-5.7,7.7c-2.4,2.1-5.2,3.6-8.5,4.7c-3.3,1.1-6.8,1.6-10.6,1.6
		c-1.7,0-3.5,0-5.2,0c-1.7,0-3.4,0-4.9-0.1c-1.6,0-3,0-4.3-0.1c-1.3,0-2.4,0-3.2,0c-0.6,0-1.5,0-2.5,0c-1.1,0-2.1,0-3.2,0
		c-1.1,0-2.1,0-3,0c-0.9,0-1.5,0-1.9,0v-3.6l2.4-0.5c0.9-0.2,1.6-0.5,2.1-0.9s1-1.1,1.3-2c0.3-0.9,0.5-2.2,0.6-3.8
		c0.1-1.6,0.2-3.6,0.2-6.1V18.1c0-2.5-0.1-4.6-0.2-6.1c-0.1-1.6-0.3-2.8-0.6-3.8s-0.7-1.6-1.3-2s-1.3-0.7-2.1-0.9l-2.4-0.5V1.2
		c0.4,0,1,0,1.9,0c0.9,0,1.8,0,2.8,0s2,0,3.1,0c1,0,1.8,0,2.5,0c0.7,0,1.7,0,3,0c1.3,0,2.7,0,4.2,0s2.9,0,4.3,0c1.4,0,2.5,0,3.3,0
		c4.3,0,8.4,0.5,12,1.6c3.7,1.1,6.9,2.6,9.5,4.6c2.7,2,4.8,4.6,6.2,7.6C1201.1,18.1,1201.8,21.5,1201.8,25.4z M1186.8,26.2
		c0-6.9-1.6-12-4.7-15.4c-3.1-3.4-7.4-5-12.7-5c-0.3,0-0.7,0-1.3,0c-0.6,0-1,0.1-1.3,0.1v30.4c0,1.6,0.1,3.1,0.3,4.2
		s0.6,2.1,1.2,2.8c0.6,0.7,1.3,1.3,2.3,1.6c0.9,0.3,2.1,0.5,3.5,0.5c3.8,0,6.9-1.5,9.2-4.6C1185.7,37.8,1186.8,32.9,1186.8,26.2z"/>
</g>
</svg>
