<?xml version="1.0" encoding="utf-8"?>
<!-- Generator: Adobe Illustrator 22.0.0, SVG Export Plug-In . SVG Version: 6.00 Build 0)  -->
<svg version="1.1" id="Laag_1" xmlns="http://www.w3.org/2000/svg" xmlns:xlink="http://www.w3.org/1999/xlink" x="0px" y="0px"
	 viewBox="0 0 597 52.2" style="enable-background:new 0 0 597 52.2;" xml:space="preserve">
<style type="text/css">
	.st0{enable-background:new    ;}
	.st1{fill:#FFFFFF;}
</style>
<text transform="matrix(1 0 0 1 258.8873 -878.5376)" style="font-family:'Vincent-Regular'; font-size:12px;">BRAND NEW GUYS</text>
<text transform="matrix(1 0 0 1 -4.324 -809.4365)" style="font-family:'GTAmerica-ExpandedBold'; font-size:68.6293px;">UN:PLUGGED</text>
<g>
	<path d="M13.9,1.7v25.5c0,8.2,5.1,14.1,14.8,14.1c9.3,0,14.7-5.8,14.7-14.1V1.7h13.9v26.9c0,14.1-10.2,23.5-28.6,23.5
		C10.2,52.2,0,42.6,0,28.5V1.7H13.9z"/>
	<path d="M67.9,1.7h14.8L108,29.4c1.6,1.9,3,3.6,3.8,5.5h0.3v-7V1.7h12.6v48.7H111L84.7,22.5c-1.3-1.5-3.2-4-3.9-5.6h-0.3v6.8v26.7
		H67.9V1.7z"/>
	<path d="M150,27.4h-14.3V16.1H150V27.4z M150,50.4h-14.3V39.2H150V50.4z"/>
	<path d="M214.2,17.9c0,10.4-8.1,17.1-20.7,17.1h-18.9v15.4h-13.9V1.7h33.1C206.6,1.7,214.2,7.8,214.2,17.9z M199.6,18.3
		c0-4.7-3.3-7.2-9.1-7.2h-15.9v14.6h15.8C196.1,25.7,199.6,23,199.6,18.3z"/>
	<path d="M221.6,1.7h13.9v37.9h33v10.8h-46.9V1.7z"/>
	<path d="M286.5,1.7v25.5c0,8.2,5.1,14.1,14.8,14.1c9.3,0,14.7-5.8,14.7-14.1V1.7h13.9v26.9c0,14.1-10.2,23.5-28.6,23.5
		c-18.5,0-28.7-9.5-28.7-23.7V1.7H286.5z"/>
	<path d="M336.5,26.6c0-15.3,12.4-26.6,32.4-26.6c15.4,0,26.8,6.1,29.8,16l-15,2.5c-1.8-4.8-6.9-8.4-15.2-8.4
		c-11.1,0-17.4,6.4-17.4,16.4c0,9.5,6.5,15.9,17.6,15.9c10.6,0,16.7-4.9,17.1-10.4v-0.2h-18.4v-8.6h31.3v27.2H388l-0.6-8.4
		c-3,5.1-9.9,10.1-22.2,10.1C347.2,52.2,336.5,41.4,336.5,26.6z"/>
	<path d="M403.9,26.6c0-15.3,12.4-26.6,32.4-26.6c15.4,0,26.8,6.1,29.8,16l-15,2.5c-1.8-4.8-6.9-8.4-15.2-8.4
		c-11.1,0-17.4,6.4-17.4,16.4c0,9.5,6.5,15.9,17.6,15.9c10.6,0,16.7-4.9,17.1-10.4v-0.2h-18.4v-8.6h31.3v27.2h-10.6l-0.6-8.4
		c-3,5.1-9.9,10.1-22.2,10.1C414.7,52.2,403.9,41.4,403.9,26.6z"/>
	<path d="M526,40.7v9.7h-49.7V1.7h49.2v9.7h-35.3v9.7h34.2v9.1h-34.2v10.4H526V40.7z"/>
	<path d="M536.7,1.7h31c17.9,0,29.4,8.3,29.4,23.5S585,50.4,567.5,50.4h-30.7V1.7H536.7z M565.6,41c10.4,0,16.7-5.8,16.7-15.5
		c0-9.5-6.9-14.4-16.8-14.4h-15V41H565.6z"/>
</g>
<text transform="matrix(1 0 0 1 914.301 -878.5376)" style="font-family:'Vincent-Regular'; font-size:12px;">BRAND NEW GUYS</text>
<g>
	<path class="st1" d="M754.4,5.3c-0.9,0.2-1.6,0.5-2.1,0.9s-1,1.1-1.3,2c-0.3,0.9-0.5,2.2-0.6,3.8s-0.2,3.6-0.2,6.1v14.7
		c0,2.7-0.4,5.1-1.3,7.2c-0.9,2.2-2.2,4-3.9,5.6s-3.9,2.8-6.6,3.6s-5.7,1.3-9.3,1.3c-7.2,0-12.5-1.7-16-5.1c-3.5-3.4-5.2-8.1-5.2-14
		V18.1c0-2.5-0.1-4.6-0.2-6.1c-0.1-1.6-0.3-2.8-0.6-3.8c-0.3-0.9-0.7-1.6-1.3-2s-1.3-0.7-2.1-0.9l-2.4-0.5V1.2c0.4,0,1.2,0,2.4,0
		s2.5,0,3.9,0s2.8,0,4.2,0c1.3,0,2.3,0,3,0s1.7,0,3.1,0c1.4,0,2.8,0,4.3,0s2.8,0,4,0s2,0,2.4,0v3.6L726,5.3c-1,0.2-1.8,0.5-2.4,0.8
		c-0.6,0.4-1.1,1-1.4,1.9c-0.3,0.9-0.5,2.1-0.7,3.7c-0.1,1.6-0.2,3.7-0.2,6.3v13.5c0,4.6,0.9,7.9,2.6,9.9c1.8,2,4.5,3.1,8.3,3.1
		c4,0,6.9-1.1,8.6-3.4c1.8-2.3,2.6-5.3,2.6-9v-14c0-2.7-0.1-4.8-0.2-6.3c-0.1-1.6-0.3-2.8-0.7-3.7s-0.8-1.5-1.4-1.9
		c-0.6-0.4-1.4-0.6-2.4-0.8l-2.5-0.5V1.2c0.3,0,0.9,0,1.8,0c0.9,0,1.9,0,2.9,0s2.1,0,3.1,0s1.9,0,2.5,0s1.5,0,2.4,0c1,0,2,0,3,0
		s1.9,0,2.8,0c0.8,0,1.5,0,1.8,0v3.6L754.4,5.3z"/>
	<path class="st1" d="M812.7,5.3c-0.9,0.2-1.6,0.5-2.1,0.9s-1,1.1-1.3,2c-0.3,0.9-0.5,2.2-0.6,3.8s-0.2,3.6-0.2,6.1v31.2l-6.3,1
		l-28.8-33.5V33c0,2.7,0.1,4.8,0.2,6.3c0.1,1.6,0.3,2.8,0.7,3.7c0.3,0.9,0.8,1.5,1.4,1.9s1.4,0.6,2.4,0.8l2.5,0.5v3.6
		c-0.4,0-1,0-1.9,0s-1.8,0-2.9,0c-1.1,0-2.1,0-3.1,0s-1.9,0-2.5,0s-1.5,0-2.4,0c-1,0-2,0-3,0s-1.9,0-2.8,0c-0.8,0-1.5,0-1.8,0v-3.6
		l2.4-0.5c0.9-0.2,1.6-0.5,2.1-0.9s1-1.1,1.3-2s0.5-2.2,0.6-3.8s0.2-3.6,0.2-6.1V16c0-1.9-0.1-3.5-0.3-4.8s-0.5-2.3-1-3.1
		c-0.5-0.8-1.1-1.4-1.9-1.9c-0.8-0.4-1.7-0.8-2.8-1l-1.9-0.4V1.2c0.4,0,0.9,0,1.6,0c0.7,0,1.5,0,2.3,0.1c0.8,0,1.6,0,2.5,0
		s1.6,0,2.2,0c0.5,0,1.2,0,2.1,0c0.8,0,1.7,0,2.6,0c0.9,0,1.8,0,2.6-0.1c0.8,0,1.5-0.1,2-0.1L802,30.3V18.1c0-2.7-0.1-4.8-0.2-6.3
		s-0.3-2.8-0.7-3.7c-0.3-0.9-0.8-1.5-1.4-1.9c-0.6-0.4-1.4-0.6-2.4-0.8l-2.5-0.5V1.2c0.3,0,0.9,0,1.8,0c0.9,0,1.9,0,2.9,0
		c1.1,0,2.1,0,3.1,0s1.9,0,2.5,0s1.5,0,2.4,0c1,0,2,0,3,0s1.9,0,2.8,0c0.8,0,1.5,0,1.8,0v3.6L812.7,5.3z"/>
	<path class="st1" d="M834.3,21.2c0,2.1-0.7,3.9-2.1,5.2c-1.4,1.4-3.2,2.1-5.3,2.1s-3.9-0.7-5.3-2.1c-1.4-1.4-2.1-3.1-2.1-5.2
		s0.7-3.9,2.1-5.3c1.4-1.4,3.2-2.1,5.3-2.1s3.9,0.7,5.3,2.1C833.6,17.3,834.3,19.1,834.3,21.2z M834.3,43c0,2.1-0.7,3.9-2.1,5.2
		c-1.4,1.4-3.2,2.1-5.3,2.1s-3.9-0.7-5.3-2.1c-1.4-1.4-2.1-3.1-2.1-5.2s0.7-3.9,2.1-5.3c1.4-1.4,3.2-2.1,5.3-2.1s3.9,0.7,5.3,2.1
		S834.3,40.9,834.3,43z"/>
	<path class="st1" d="M883.5,15.1c0,2.4-0.4,4.5-1.3,6.3c-0.9,1.8-2.2,3.3-3.9,4.5s-3.8,2.2-6.3,3c-2.5,0.7-5.3,1.3-8.5,1.6
		l-0.5-2.8c1.2-0.6,2.3-1.3,3.2-2s1.6-1.5,2.2-2.4c0.5-0.9,1-2,1.2-3.2s0.4-2.7,0.4-4.5c0-3.5-0.6-6-1.9-7.5c-1.3-1.5-2.9-2.3-5-2.3
		c-0.8,0-1.4,0-1.9,0.1s-1.1,0.2-1.6,0.4V33c0,2.7,0.1,4.9,0.2,6.5c0.1,1.6,0.4,2.8,0.7,3.7c0.4,0.9,0.9,1.5,1.6,1.8
		c0.7,0.3,1.6,0.6,2.8,0.8l2.5,0.5v3.6c-0.4,0-1.2,0-2.5,0s-2.7,0-4.3,0s-3.1,0-4.5,0c-1.5,0-2.5,0-3.2,0c-0.6,0-1.6,0-3,0
		c-1.3,0-2.7,0-4.2,0s-2.7,0-3.9,0s-2,0-2.4,0v-3.6l2.4-0.5c0.9-0.2,1.6-0.5,2.1-0.9s1-1.1,1.3-2s0.5-2.2,0.6-3.8s0.2-3.6,0.2-6.1
		V18.1c0-2.5-0.1-4.6-0.2-6.1c-0.1-1.6-0.3-2.8-0.6-3.8c-0.3-0.9-0.7-1.6-1.3-2c-0.5-0.4-1.3-0.7-2.1-0.9l-2.4-0.5V1.2
		c0.4,0,1.2,0,2.4,0s2.5,0,3.9,0s2.8,0,4.2,0c1.3,0,2.3,0,3,0c0.6,0,1.5,0,2.6,0s2.3,0,3.5,0s2.4,0,3.6,0c1.2,0,2.2,0,3,0
		c2.7,0,5.2,0.3,7.4,0.9s4.1,1.5,5.7,2.6c1.6,1.2,2.8,2.6,3.6,4.3S883.5,12.9,883.5,15.1z"/>
	<path class="st1" d="M926.6,49.7h-8c-1.1,0-2.4,0-4.1,0c-1.7,0-3.4,0-5.2,0s-3.4,0-4.9,0s-2.6,0-3.3,0s-1.7,0-3.2,0s-3.1,0-4.7,0
		c-1.6,0-3.1,0-4.5,0s-2.3,0-2.7,0v-3.6l2.4-0.5c0.9-0.2,1.6-0.5,2.1-0.9s1-1.1,1.3-2s0.5-2.2,0.6-3.8s0.2-3.6,0.2-6.1V18.1
		c0-2.5-0.1-4.6-0.2-6.1c-0.1-1.6-0.3-2.8-0.6-3.8c-0.3-0.9-0.7-1.6-1.3-2s-1.3-0.7-2.1-0.9L886,4.8V1.2c0.4,0,1.2,0,2.4,0
		s2.5,0,3.9,0s2.8,0,4.2,0c1.3,0,2.3,0,3,0c0.6,0,1.7,0,3.2,0s3,0,4.5,0c1.6,0,3,0,4.3,0s2.1,0,2.5,0v3.6l-2.5,0.5
		c-1.2,0.2-2.1,0.5-2.8,0.8s-1.2,0.9-1.6,1.8c-0.4,0.9-0.6,2.1-0.7,3.7c-0.1,1.6-0.2,3.7-0.2,6.5v18.2c0,1.8,0.1,3.3,0.3,4.5
		c0.2,1.1,0.5,2,1.1,2.6c0.5,0.6,1.3,1,2.3,1.3c1,0.2,2.2,0.3,3.8,0.3h0.2c2.1,0,3.9-0.5,5.2-1.4c1.3-1,2.5-2.7,3.6-5.1l1.1-2.6h4.7
		L926.6,49.7z"/>
	<path class="st1" d="M982.9,5.3c-0.9,0.2-1.6,0.5-2.1,0.9s-1,1.1-1.3,2c-0.3,0.9-0.5,2.2-0.6,3.8s-0.2,3.6-0.2,6.1v14.7
		c0,2.7-0.4,5.1-1.3,7.2c-0.9,2.2-2.2,4-3.9,5.6s-3.9,2.8-6.6,3.6c-2.6,0.8-5.7,1.3-9.3,1.3c-7.2,0-12.5-1.7-16-5.1
		c-3.5-3.4-5.2-8.1-5.2-14V18.1c0-2.5-0.1-4.6-0.2-6.1c-0.1-1.6-0.3-2.8-0.6-3.8c-0.3-0.9-0.7-1.6-1.3-2c-0.5-0.4-1.3-0.7-2.1-0.9
		l-2.4-0.5V1.2c0.4,0,1.2,0,2.4,0s2.5,0,3.9,0s2.8,0,4.2,0c1.3,0,2.3,0,3,0s1.7,0,3.1,0c1.4,0,2.8,0,4.3,0s2.8,0,4,0s2,0,2.4,0v3.6
		l-2.5,0.5c-1,0.2-1.8,0.5-2.4,0.8c-0.6,0.4-1.1,1-1.4,1.9s-0.5,2.1-0.7,3.7c-0.1,1.6-0.2,3.7-0.2,6.3v13.5c0,4.6,0.9,7.9,2.6,9.9
		c1.8,2,4.5,3.1,8.3,3.1c4,0,6.9-1.1,8.6-3.4c1.8-2.3,2.6-5.3,2.6-9v-14c0-2.7-0.1-4.8-0.2-6.3s-0.3-2.8-0.7-3.7
		c-0.3-0.9-0.8-1.5-1.4-1.9c-0.6-0.4-1.4-0.6-2.4-0.8L965,4.8V1.2c0.3,0,0.9,0,1.8,0c0.9,0,1.9,0,2.9,0s2.1,0,3.1,0s1.9,0,2.5,0
		s1.5,0,2.4,0c1,0,2,0,3,0s1.9,0,2.8,0c0.8,0,1.5,0,1.8,0v3.6L982.9,5.3z"/>
	<path class="st1" d="M1038.5,31.9c-1.7,0.3-2.9,0.9-3.5,1.7c-0.6,0.9-1,2.2-1,4v0.5c0,0.9,0.1,1.7,0.2,2.3s0.3,1.2,0.7,1.6
		c0.3,0.4,0.8,0.8,1.3,1s1.3,0.5,2.1,0.8V47c-2.7,1-6,1.8-9.8,2.4c-3.8,0.6-7.8,0.8-11.9,0.8c-4.1,0-7.8-0.5-11.2-1.6
		s-6.2-2.6-8.6-4.7c-2.4-2.1-4.3-4.7-5.6-7.8s-2-6.6-2-10.7c0-3.9,0.7-7.4,2.2-10.5s3.5-5.7,6.1-7.8s5.6-3.7,9-4.8
		c3.5-1.1,7.1-1.6,11.1-1.6c3.7,0,7,0.3,9.9,1s5.2,1.6,6.9,2.6l1,12.3h-5.1l-0.8-1.9c-0.5-1.2-1.2-2.4-2-3.6c-0.8-1.1-1.6-2.1-2.6-3
		c-1-0.8-2.2-1.5-3.4-2c-1.3-0.5-2.7-0.8-4.3-0.8c-4,0-7.1,1.6-9.4,4.7c-2.3,3.1-3.5,7.9-3.5,14.3c0,3.6,0.3,6.7,1,9.4
		c0.6,2.7,1.6,4.9,2.7,6.6s2.6,3.1,4.3,3.9s3.5,1.3,5.6,1.3c2.3,0,3.9-0.2,4.8-0.6c0.9-0.4,1.3-1.1,1.3-2v-3c0-1.4-0.1-2.6-0.2-3.6
		s-0.3-1.8-0.7-2.4c-0.3-0.6-0.8-1.1-1.4-1.4c-0.6-0.3-1.4-0.5-2.3-0.7l-2.1-0.3v-3.6c0.3,0,1,0,2,0s2.1,0,3.3,0s2.4,0,3.5,0
		c1.2,0,2.1,0,2.7,0s1.5,0,2.7,0c1.1,0,2.3,0,3.5,0s2.3,0,3.3,0s1.7,0,2.1,0v3.6L1038.5,31.9z"/>
	<path class="st1" d="M1094.1,31.9c-1.7,0.3-2.9,0.9-3.5,1.7c-0.6,0.9-1,2.2-1,4v0.5c0,0.9,0.1,1.7,0.2,2.3s0.3,1.2,0.7,1.6
		c0.3,0.4,0.8,0.8,1.3,1s1.3,0.5,2.1,0.8V47c-2.7,1-6,1.8-9.8,2.4c-3.8,0.6-7.8,0.8-11.9,0.8s-7.8-0.5-11.2-1.6s-6.2-2.6-8.6-4.7
		s-4.3-4.7-5.6-7.8c-1.4-3.1-2-6.6-2-10.7c0-3.9,0.7-7.4,2.2-10.5s3.5-5.7,6.1-7.8s5.6-3.7,9-4.8c3.5-1.1,7.1-1.6,11.1-1.6
		c3.7,0,7,0.3,9.9,1s5.2,1.6,6.9,2.6l1,12.3h-5.1l-0.8-1.9c-0.5-1.2-1.2-2.4-2-3.6c-0.8-1.1-1.6-2.1-2.6-3c-1-0.8-2.2-1.5-3.4-2
		c-1.3-0.5-2.7-0.8-4.3-0.8c-4,0-7.1,1.6-9.4,4.7s-3.5,7.9-3.5,14.3c0,3.6,0.3,6.7,1,9.4c0.6,2.7,1.6,4.9,2.7,6.6
		c1.2,1.8,2.6,3.1,4.3,3.9c1.7,0.8,3.5,1.3,5.6,1.3c2.3,0,3.9-0.2,4.8-0.6c0.9-0.4,1.3-1.1,1.3-2v-3c0-1.4-0.1-2.6-0.2-3.6
		s-0.3-1.8-0.7-2.4c-0.3-0.6-0.8-1.1-1.4-1.4c-0.6-0.3-1.4-0.5-2.3-0.7l-2.1-0.3v-3.6c0.3,0,1,0,2,0s2.1,0,3.3,0s2.4,0,3.5,0
		c1.2,0,2.1,0,2.7,0s1.5,0,2.7,0c1.1,0,2.3,0,3.5,0s2.3,0,3.3,0s1.7,0,2.1,0v3.6L1094.1,31.9z"/>
	<path class="st1" d="M1141.8,49.7h-7.5c-0.7,0-1.6,0-2.8,0s-2.4,0-3.8,0s-2.8,0-4.2,0c-1.5,0-2.8,0-4.1,0c-1.3,0-2.4,0-3.4,0
		s-1.7,0-2.1,0c-0.6,0-1.7,0-3.2,0s-3,0-4.5,0s-3,0-4.3,0s-2.2,0-2.5,0v-3.6l2.4-0.5c0.9-0.2,1.6-0.5,2.1-0.9s1-1.1,1.3-2
		s0.5-2.2,0.6-3.8s0.2-3.6,0.2-6.1V18.1c0-2.5-0.1-4.6-0.2-6.1c-0.1-1.6-0.3-2.8-0.6-3.8c-0.3-0.9-0.7-1.6-1.3-2
		c-0.5-0.4-1.3-0.7-2.1-0.9l-2.4-0.5V1.2c0.4,0,1.2,0,2.5,0s2.8,0,4.3,0s3,0,4.5,0s2.5,0,3.2,0c0.4,0,1.2,0,2.3,0s2.4,0,3.9,0
		s3,0,4.6,0s3.1,0,4.5,0s2.6,0,3.6,0s1.6,0,1.9,0h5.8l1.6,12.5h-4.3l-1-1.9c-1-1.8-2.2-3.3-3.6-4.3c-1.4-1.1-3.4-1.6-5.8-1.6h-2.2
		c-1.4,0-2.5,0.1-3.4,0.3c-0.8,0.2-1.6,0.4-2.2,0.6V22h1.7c2,0,3.6-0.1,4.8-0.3c1.2-0.2,2.2-0.5,2.9-1c0.7-0.5,1.2-1,1.4-1.8
		c0.3-0.7,0.5-1.5,0.5-2.5l0.1-0.8h3.4c0,0.4,0,0.9,0,1.6c0,0.7,0,1.5,0,2.4s0,1.7,0,2.6s0,1.6,0,2.3s0,1.4,0,2.3s0,1.8,0,2.6
		s0,1.6,0,2.4s0,1.3,0,1.7h-3.4l-0.1-0.8c-0.1-1-0.3-1.8-0.5-2.5c-0.3-0.7-0.8-1.3-1.4-1.8c-0.7-0.5-1.6-0.8-2.9-1
		c-1.2-0.2-2.8-0.3-4.8-0.3h-1.7v9.1c0,1.8,0.1,3.3,0.3,4.5c0.2,1.1,0.5,2,1.1,2.6c0.5,0.6,1.3,1,2.3,1.3c1,0.2,2.2,0.3,3.8,0.3h1.7
		c2.4,0,4.2-0.5,5.5-1.4c1.3-1,2.5-2.5,3.5-4.5l1-1.9h4.7L1141.8,49.7z"/>
	<path class="st1" d="M1201.8,25.4c0,4-0.7,7.5-2.1,10.5s-3.3,5.6-5.7,7.7c-2.4,2.1-5.2,3.6-8.5,4.7c-3.3,1.1-6.8,1.6-10.6,1.6
		c-1.7,0-3.5,0-5.2,0s-3.4,0-4.9-0.1c-1.6,0-3,0-4.3-0.1c-1.3,0-2.4,0-3.2,0c-0.6,0-1.5,0-2.5,0c-1.1,0-2.1,0-3.2,0s-2.1,0-3,0
		s-1.5,0-1.9,0v-3.6l2.4-0.5c0.9-0.2,1.6-0.5,2.1-0.9s1-1.1,1.3-2s0.5-2.2,0.6-3.8s0.2-3.6,0.2-6.1V18.1c0-2.5-0.1-4.6-0.2-6.1
		c-0.1-1.6-0.3-2.8-0.6-3.8s-0.7-1.6-1.3-2s-1.3-0.7-2.1-0.9l-2.4-0.5V1.2c0.4,0,1,0,1.9,0s1.8,0,2.8,0s2,0,3.1,0c1,0,1.8,0,2.5,0
		s1.7,0,3,0s2.7,0,4.2,0s2.9,0,4.3,0s2.5,0,3.3,0c4.3,0,8.4,0.5,12,1.6c3.7,1.1,6.9,2.6,9.5,4.6c2.7,2,4.8,4.6,6.2,7.6
		C1201.1,18.1,1201.8,21.5,1201.8,25.4z M1186.8,26.2c0-6.9-1.6-12-4.7-15.4s-7.4-5-12.7-5c-0.3,0-0.7,0-1.3,0c-0.6,0-1,0.1-1.3,0.1
		v30.4c0,1.6,0.1,3.1,0.3,4.2s0.6,2.1,1.2,2.8s1.3,1.3,2.3,1.6c0.9,0.3,2.1,0.5,3.5,0.5c3.8,0,6.9-1.5,9.2-4.6
		C1185.7,37.8,1186.8,32.9,1186.8,26.2z"/>
</g>
<g>
	<g>
		<path class="st1" d="M1354.6,406.8l-52.5,18.8v13l19.7-6.8l0,107.1l13.3-4.8l-0.1-107.1l19.6-7.1V406.8z M1349.7,416.6l-19.6,7.2
			v107.1l-3.2,1l-0.1-106.9l-19.2,6.8v-3l42.2-14.9V416.6z"/>
		<path class="st1" d="M1294.7,428.5l-14.3,5.2l-23.7,68.3l23.5,51.8l14.2-4.8l-23.7-51.4L1294.7,428.5z M1286.8,546.3l-3.1,1.2
			l-21.9-47l21.8-63l3.2-1.2l-21.7,62.9L1286.8,546.3z"/>
		<path class="st1" d="M1438.3,376.5l-13.2,4.6l-0.1,92.4c0,0-1.4,11.4-6.9,15.9s-11,8.4-18.6,6.6s-6.5-15.2-6.5-24s-0.2-79-0.2-79
			l-13.2,4.6v91.6c0,0,0.5,22.6,17.5,21.8s33.2-12.5,38.2-27.4S1438.3,376.5,1438.3,376.5z M1433.1,470.9c0,8.5-6.1,19.5-8.6,22.2
			s-10.2,10.5-24.4,11.9s-15.4-15.9-15.4-15.9l-0.2-88.4l3.1-0.9c0,0,0,83.2,0,86s1.8,23.6,22.7,14.3c20.9-9.3,20.1-29.3,20.1-29.3
			v-86.3l2.8-1C1433.1,383.6,1433.1,462.4,1433.1,470.9z"/>
		<path class="st1" d="M1500.5,375.3c-1.1-4.6-6-13.6-16.2-13.2c-10.2,0.4-36.1,11.1-36.1,11.1l-0.2,119.9l12.9-4.7v-53.1
			c0,0,2.6-1,5.9-2.2c20.9-7.2,26.2-16.4,26.2-16.4s5.8-6.7,7.2-14.2C1501.8,395,1501.6,379.9,1500.5,375.3z M1485.3,418.6
			c-6,4.4-15.4,9.3-29.2,13.8l0.1,52.8l-2.8,1.2l0.1-110c0,0,20.1-8.4,28.8-8.8c8.7-0.4,14.5,7.3,14.6,21.7
			S1491.3,414.2,1485.3,418.6z"/>
		<path class="st1" d="M1480.8,371.1c0,0-2.9-1.2-24.8,7.3l0.2,50.9c0,0,25.4-6.6,31.8-17.9c6.3-11.3,5.8-15.7,5.8-22.8
			C1493.7,381.6,1491.8,371.1,1480.8,371.1z M1488.7,396.9c-1.2,19.8-27.5,25.8-27.5,25.8v-40.8l14.3-4.9
			C1482.3,375.6,1489.9,377.1,1488.7,396.9z"/>
		<path class="st1" d="M1416.1,309.8c0,0,5.2-6.7,6.7-14.2c1.5-7.6,1.8-22.7,0.8-27.2c-1.1-4.6-4.3-14.7-14.5-14.2
			c-10.2,0.4-38.2,11.7-38.2,11.7l0.2,120.4l12.9-4.7v-53.1c0,0,15.9-6.1,19.4-5.8s7.2,2.1,7.2,11.5c-0.1,9.4,0,38.2,0,38.2l13-4.9
			v-42.1C1423.5,325.3,1422,312.1,1416.1,309.8z M1418.7,363.8l-2.9,0.9c0,0-0.4-31.7-0.7-38.1s-4.8-10.3-11.1-9.7
			c-6.3,0.7-25.3,8.1-25.3,8.1v53.1l-2.7,1V269.1c0,0,22.8-8.7,28.2-9.2c5.5-0.6,9.2,2.1,9.9,2.8c0.8,0.7,3.8,3.2,4.5,12.8
			c0.8,9.6,0.8,11.2-1.8,23s-11.7,15.4-11.7,15.4c7.2,0,8.9,2.2,11.2,5.2s2.2,12.1,2.2,12.1V363.8z"/>
		<path class="st1" d="M1415.6,292.6c0.6-11.9,0.9-19-1.9-24.6c-2.8-5.6-8.6-6.3-20.4-2.2s-14.5,5-14.5,5V322c0,0,18.6-6.5,22.9-8.8
			S1414.9,304.5,1415.6,292.6z M1383.6,314.9v-40.3c16.2-7,19.8-6.3,22.8-4.5c3,1.8,5.8,7,3.8,24S1383.6,314.9,1383.6,314.9z"/>
		<path class="st1" d="M1318.8,404.7l14.3-5.2l23.7-68.3l-23.5-51.8l-14.2,4.8l23.7,51.4L1318.8,404.7z M1326.7,286.8l3.1-1.2
			l21.9,47l-21.8,63l-3.2,1.2l21.7-62.9L1326.7,286.8z"/>
		<path class="st1" d="M1312.5,286.8l-52.5,18.8v13l19.7-6.8l0,107.1l13.3-4.8l-0.1-107.1l19.6-7.1V286.8z M1307.6,296.6l-19.6,7.2
			v107.1l-3.2,1l-0.1-106.9l-19.2,6.8v-3l42.2-14.9V296.6z"/>
		<path class="st1" d="M1256.1,397.7c-0.3-6.5-2.7-15.2-13.9-21.7c-11.2-6.4-25.9-13.2-27.6-22.1c-1.7-8.9,3.4-16.3,5.7-19
			c2.2-2.7,9.2-7.7,14.1-7c4.9,0.7,8.7,10.5,7.8,23.7l12.8-4.7v-10.1c0,0,0-22.2-12.8-23.5h-5.2c0,0-13.2,2.2-22.4,10.8
			c-9.2,8.6-14,24.3-13.3,31.2c0.7,6.8,2,10.8,4.2,14.4c2.2,3.7,9.2,10.1,15.5,12.8c6.3,2.8,20.1,8.6,21.8,17.6
			c1.7,9-2.8,19.8-11.9,24c-9.1,4.2-11.5,1.8-13.6-0.5c-2.1-2.2-4.2-10.1-3.9-21.9l-13.1,4.5v7.8c0,0,0,27.4,16,27.1
			s31.1-12.7,35-21.2C1255.1,411.3,1256.4,404.2,1256.1,397.7z M1249.2,413.5c-1.2,4.7-5.9,10.5-12,14.9c-5.8,4.3-12.9,7.3-19.6,6.9
			c-13.8-0.8-12.4-25.8-12.4-25.8l2.6-1c0.2,10.5,1.7,22.8,12.5,23.4c10.8,0.6,21.1-10.4,22.1-11.9s9-12.4,4.5-24.8
			s-28.1-19.5-33.5-25.5s-9.8-15.5-4.8-28.5s17-23.2,29.8-22.6s11.5,25,11.5,25l-2.8,0.6c0.4-10-2.2-21.1-9.2-22s-19.4,3.8-25.4,16
			s-4.2,20.8,2.2,27.9s27.2,13.9,32.4,22S1251.4,404.4,1249.2,413.5z"/>
		<path class="st1" d="M1245.4,420.6c0,0,3.2-4.2,4.2-9s2.4-2.1,2.4-2.1l-3.6,12.7l-2.5,0.5C1246,422.7,1244.3,422.1,1245.4,420.6z"
			/>
	</g>
	
		<image style="overflow:visible;" width="709" height="709" xlink:href="../../../../../../../../../../../../Users/cye/Desktop/WORKING/confettifest2.0/img/yardbird.png"  transform="matrix(0.4459 0 0 0.4459 2370.1226 242.155)">
	</image>
	
		<image style="overflow:visible;" width="359" height="133" xlink:href="../../../png_crayon_small_56cf24fa-a7b1-4181-8fb6-f7a9ec78d74d_360x.png"  transform="matrix(1.7252 0 0 1.7252 1624.2039 268.8286)">
	</image>
	
		<image style="overflow:visible;" width="300" height="144" xlink:href="../../../logo-300x144-white.png"  transform="matrix(1 0 0 1 1783.8833 690.653)">
	</image>
	<text transform="matrix(1 0 0 1 1189.3115 762.8119)" class="st1" style="font-family:'Vincent-Regular'; font-size:50.7392px;">brand new guys</text>
	<path class="st1" d="M2682.2,738.7c-3.1-1.2-8.2-1.9-13.7-2l-9.6-0.1c-1.8,0-2.9-0.8-2.9-2.1c0-1.7,1.4-2.4,5.1-2.4h6
		c6.4,0.2,17.4,1.1,21.4,1.8v-15.6c-9-1.8-18.6-2.6-28-2.6c-12.3,0-21.7,2-26.4,5.5c-2,1.5-3.5,3.4-4.6,5.7l2.1-10H2571v0h-59.2
		v16.5c-3.8-12.2-15.4-18-35.4-18c-11.1,0-20.1,2.1-26.4,6.1c-3.1,2-5.6,4.8-7.3,8.2l2.7-12.8h-25.8l-4.7,22.2l-10.5-22.2h-27.3
		l-11.3,53.1h25.8l5-23.8l13.5,23.8h24l5.7-26.9c0,0.1,0,0.3,0,0.4c0,9.5,3.3,17.1,9.1,21.3c6.2,4.5,15.4,6.7,27.5,6.7
		c12.3,0,21.4-2.2,27.6-6.7c5.7-4.1,9.1-11.9,9.1-21c0-2.1-0.1-4-0.4-5.8h14.9v32h27.3v-32h11.3l-6.8,32h60.9l2.9-13.9h-33.6l1-4.5
		h33.6l2.7-12.7h-33.6l1-4.9h33.4c0,0.4,0,0.9,0,1.4c0,4.1,1,7.6,3.1,10.2c2.7,3.5,6.8,5.3,13.5,6.1c3.1,0.3,7.9,0.6,10,0.6h4.5
		c2.9,0,3.7,0.5,3.7,1.8c0,1.6-1.3,2.4-3.7,2.4c-9.5,0-17.8-0.7-29.7-2.5v14.6c11.4,2.1,18.7,2.7,29.5,2.7c12.2,0,18.1-1.1,23.6-4.6
		c5.2-3.3,8.3-8.7,8.3-14.5C2690.6,745.8,2687.2,740.6,2682.2,738.7z M2476.5,756c-6.1,0-9.1-4.1-9.1-12.5c0-6.7,3.2-10.3,9.1-10.3
		c6.1,0,9.2,3.5,9.2,10.4C2485.6,751.8,2482.5,756,2476.5,756z"/>
</g>
<g>
	<path class="st1" d="M1126.5-163.5v72.9c0,23.4,14.6,40.3,42.3,40.3c26.6,0,42-16.6,42-40.3v-72.9h39.7v76.9
		c0,40.3-29.1,67.2-81.7,67.2c-52.9,0.3-82-27.1-82-67.4v-76.6H1126.5z"/>
	<path class="st1" d="M1280.9-163.5h42.3l72.3,79.2c4.6,5.4,8.6,10.3,10.9,15.7h0.9v-20v-74.9h36v139.2H1404l-75.2-79.7
		c-3.7-4.3-9.1-11.4-11.1-16h-0.9v19.4v76.3h-36V-163.5z"/>
	<path class="st1" d="M1515.5-90.1h-40.9v-32.3h40.9V-90.1z M1515.5-24.3h-40.9v-32h40.9V-24.3z"/>
	<path class="st1" d="M1698.9-117.2c0,29.7-23.1,48.9-59.2,48.9h-54v44H1546v-139.2h94.6C1677.2-163.5,1698.9-146.1,1698.9-117.2z
		 M1657.2-116.1c0-13.4-9.4-20.6-26-20.6h-45.4v41.7h45.1C1647.2-94.9,1657.2-102.6,1657.2-116.1z"/>
	<path class="st1" d="M1720.1-163.5h39.7v108.3h94.3v30.9h-134V-163.5z"/>
	<path class="st1" d="M1905.5-163.5v72.9c0,23.4,14.6,40.3,42.3,40.3c26.6,0,42-16.6,42-40.3v-72.9h39.7v76.9
		c0,40.3-29.1,67.2-81.7,67.2c-52.9,0-82-27.1-82-67.7v-76.3H1905.5z"/>
	<path class="st1" d="M2048.4-92.3c0-43.7,35.4-76,92.6-76c44,0,76.6,17.4,85.2,45.7l-42.9,7.1c-5.1-13.7-19.7-24-43.4-24
		c-31.7,0-49.7,18.3-49.7,46.9c0,27.1,18.6,45.4,50.3,45.4c30.3,0,47.7-14,48.9-29.7v-0.6h-52.6v-24.6h89.4v77.7h-30.6l-1.7-24
		c-8.6,14.6-28.3,28.9-63.4,28.9C2079-19.2,2048.4-50,2048.4-92.3z"/>
	<path class="st1" d="M2241-92.3c0-43.7,35.4-76,92.6-76c44,0,76.6,17.4,85.2,45.7l-42.9,7.1c-5.1-13.7-19.7-24-43.4-24
		c-31.7,0-49.7,18.3-49.7,46.9c0,27.1,18.6,45.4,50.3,45.4c30.3,0,47.7-14,48.9-29.7v-0.6h-52.6v-24.6h89.4v77.7h-30.3l-1.7-24
		c-8.6,14.6-28.3,28.9-63.4,28.9C2271.9-19.2,2241-50,2241-92.3z"/>
	<path class="st1" d="M2589.9-52v27.7h-142v-139.2h140.6v27.7h-100.9v27.7h97.7v26h-97.7v29.7h102.3V-52z"/>
	<path class="st1" d="M2620.5-163.5h88.6c51.2,0,84,23.7,84,67.2s-34.6,72-84.6,72h-87.7v-139.2H2620.5z M2703.1-51.2
		c29.7,0,47.7-16.6,47.7-44.3c0-27.1-19.7-41.1-48-41.1h-42.9v85.4H2703.1z"/>
</g>
</svg>
